<svg width="56" height="56" viewBox="0 0 56 56" fill="none" xmlns="http://www.w3.org/2000/svg">
<g clip-path="url(#clip0)">
<path d="M55.4045 22.757L28.8596 3.32141C28.3478 2.94669 27.6524 2.94669 27.1407 3.32141L0.59561 22.757C-0.0527648 23.2318 -0.19364 24.1423 0.281157 24.7906C0.755954 25.439 1.6665 25.5797 2.31477 25.1051L28.0001 6.2987L53.6854 25.105C53.9444 25.2947 54.2454 25.3861 54.5437 25.3861C54.9917 25.3861 55.4338 25.1799 55.7189 24.7905C56.1938 24.1423 56.0529 23.2318 55.4045 22.757Z" fill="#707C87"/>
<path d="M48.3708 25.4344C47.5673 25.4344 46.9158 26.0859 46.9158 26.8894V50.0495H35.2759V37.4073C35.2759 33.3954 32.0119 30.1316 28.0002 30.1316C23.9886 30.1316 20.7246 33.3956 20.7246 37.4073V50.0496H9.08459V26.8895C9.08459 26.086 8.43304 25.4345 7.62958 25.4345C6.82611 25.4345 6.17456 26.086 6.17456 26.8895V51.5047C6.17456 52.3083 6.82611 52.9597 7.62958 52.9597H22.1796C22.9448 52.9597 23.571 52.3686 23.629 51.618C23.6325 51.584 23.6346 51.5468 23.6346 51.5047V37.4074C23.6346 35.0001 25.593 33.0418 28.0002 33.0418C30.4075 33.0418 32.3658 35.0002 32.3658 37.4074V51.5047C32.3658 51.5466 32.368 51.5831 32.3715 51.6167C32.4288 52.3678 33.0552 52.9597 33.8208 52.9597H48.3709C49.1745 52.9597 49.8259 52.3083 49.8259 51.5047V26.8895C49.8258 26.0859 49.1744 25.4344 48.3708 25.4344Z" fill="#707C87"/>
</g>
<defs>
<clipPath id="clip0">
<rect width="56" height="56" fill="white" transform="translate(0.00012207)"/>
</clipPath>
</defs>
</svg>
